<?xml version="1.0" standalone="no"?><!DOCTYPE svg PUBLIC "-//W3C//DTD SVG 1.1//EN" "http://www.w3.org/Graphics/SVG/1.1/DTD/svg11.dtd"><svg t="1603972798204" class="icon" viewBox="0 0 1024 1024" version="1.1" xmlns="http://www.w3.org/2000/svg" p-id="3075" xmlns:xlink="http://www.w3.org/1999/xlink" width="200" height="200"><defs><style type="text/css"></style></defs><path d="M512 853.333333c-18.868148 0-55.845926-22.471111-83.626667-41.339259-42.666667-29.013333-87.514074-66.37037-126.103703-105.244444C222.814815 626.915556 128 500.717037 128 353.185185c0-60.112593 23.419259-116.717037 65.991111-159.194074 42.571852-42.571852 99.081481-65.991111 159.194074-65.991111 60.112593 0 116.811852 23.608889 158.814815 65.517037 42.002963-41.908148 98.702222-65.517037 158.814815-65.517037 60.112593 0 116.717037 23.419259 159.194074 65.991111 42.571852 42.571852 65.991111 99.081481 65.991111 159.194074 0 147.531852-94.814815 273.73037-174.26963 353.659259-38.684444 38.874074-83.437037 76.231111-126.103703 105.244445-27.780741 18.773333-64.758519 41.244444-83.626667 41.244444z m1.327407-42.571852z m-2.654814 0zM353.185185 170.666667C252.586667 170.666667 170.666667 252.586667 170.666667 353.185185c0 130.654815 85.333333 245.285926 156.823703 318.482963C411.496296 757.475556 494.554074 805.451852 512 810.477037c17.445926-4.93037 100.503704-53.001481 184.50963-138.808889C768 598.471111 853.333333 483.84 853.333333 353.185185 853.333333 252.586667 771.413333 170.666667 670.814815 170.666667c-55.466667 0-107.33037 24.841481-142.222222 68.077037L512 259.413333l-16.592593-20.574814c-34.891852-43.33037-86.755556-68.171852-142.222222-68.171852z" p-id="3076"></path></svg>